<svg width="80" height="80" viewBox="0 0 80 80" fill="none" xmlns="http://www.w3.org/2000/svg">
    <path d="M6 40.0067C6 35.6921 11.3891 31.6033 19.6513 29.0678C17.7447 20.6246 18.5921 13.9073 22.3261 11.7567C23.1868 11.2522 24.1931 11.0132 25.2921 11.0132V13.9737C24.683 13.9737 24.1931 14.0931 23.7826 14.3189C21.9818 15.3543 21.2005 19.2971 21.8098 24.3683C21.9553 25.6162 22.1936 26.9304 22.485 28.2712C25.0803 27.6341 27.9137 27.1428 30.893 26.8243C32.6805 24.3683 34.5343 22.138 36.4012 20.1865C32.0847 16.1641 28.0329 13.9604 25.2787 13.9604V11C28.92 11 33.6869 13.602 38.5064 18.1157C43.3262 13.6286 48.0929 11.053 51.7342 11.053V14.0134C48.9933 14.0134 44.9283 16.204 40.6117 20.1998C42.4655 22.1513 44.3192 24.3683 46.0803 26.8243C49.0728 27.1428 51.9063 27.634 54.5016 28.2845C54.8061 26.957 55.0311 25.6692 55.19 24.4347C55.8124 19.3635 55.0444 15.4206 53.2569 14.3719C52.8596 14.1329 52.3433 14.0268 51.7342 14.0268V11.0665C52.8465 11.0665 53.8528 11.3053 54.7266 11.8098C58.4473 13.9604 59.2815 20.6644 57.3615 29.081C65.5974 31.6299 70.96 35.7053 70.96 40.0067C70.96 44.3211 65.571 48.4099 57.3087 50.9455C59.2153 59.3886 58.3678 66.106 54.6339 68.2566C53.7732 68.761 52.7669 69 51.6548 69C48.0135 69 43.2467 66.398 38.4271 61.8843C33.6073 66.3714 28.8406 68.9469 25.1994 68.9469C24.0871 68.9469 23.0808 68.708 22.2069 68.2034C18.4862 66.0528 17.652 59.3488 19.572 50.9322C11.3626 48.3967 6 44.3079 6 40.0067ZM23.2397 31.152C23.7297 32.8645 24.3387 34.63 25.0271 36.3958C25.5701 35.3337 26.1395 34.2717 26.7618 33.2096C27.3709 32.1476 28.0197 31.1122 28.6684 30.1032C26.7882 30.3821 24.9742 30.7272 23.2397 31.152ZM29.304 45.2902C30.3368 47.0824 31.3961 48.7817 32.4951 50.3614C34.468 50.534 36.4674 50.627 38.48 50.627C40.4794 50.627 42.4787 50.534 44.4383 50.3747C45.5373 48.7949 46.6099 47.1089 47.6427 45.33C48.649 43.591 49.5626 41.8254 50.3969 40.0465C49.576 38.2675 48.649 36.4887 47.6559 34.7495C46.6232 32.9574 45.5639 31.2581 44.4649 29.6784C42.492 29.5058 40.4926 29.4129 38.48 29.4129C36.4806 29.4129 34.4812 29.5058 32.5217 29.6652C31.4227 31.2449 30.3501 32.9308 29.3173 34.7098C28.311 36.4489 27.3974 38.2144 26.5631 39.9933C27.3974 41.7722 28.311 43.5511 29.304 45.2902ZM25.0271 43.5644C24.3122 45.3433 23.7031 47.1222 23.1999 48.848C24.9344 49.2728 26.7618 49.6312 28.6553 49.9101C28.0064 48.8878 27.3576 47.839 26.7486 46.7637C26.1395 45.7017 25.5701 44.6264 25.0271 43.5644ZM38.4535 57.7292C39.685 56.4548 40.9163 55.0344 42.1346 53.4812C40.9429 53.5342 39.7246 53.574 38.4933 53.574C37.2485 53.574 36.0171 53.5474 34.8123 53.4812C36.004 55.0344 37.2354 56.4548 38.4535 57.7292ZM48.3047 49.9101C50.185 49.6312 51.999 49.286 53.7335 48.8614C53.2437 47.1487 52.6345 45.3832 51.946 43.6176C51.4032 44.6796 50.8338 45.7417 50.2114 46.8036C49.5891 47.8656 48.9536 48.9011 48.3047 49.9101ZM38.5198 22.2841C37.2883 23.5585 36.0569 24.9789 34.8388 26.5321C36.0304 26.479 37.2485 26.4393 38.48 26.4393C39.7246 26.4393 40.956 26.4658 42.161 26.5321C40.9694 24.9789 39.7379 23.5585 38.5198 22.2841ZM48.3181 30.1032C48.9667 31.1254 49.6156 32.1742 50.2246 33.2495C50.8338 34.3116 51.4032 35.3736 51.946 36.4356C52.6611 34.6567 53.2701 32.8778 53.7732 31.152C52.0387 30.7404 50.2114 30.3821 48.3181 30.1032ZM60.301 46.7239C64.9883 44.7193 68.0206 42.0909 68.0206 40.0067C68.0206 37.9224 64.9883 35.2807 60.301 33.2893C59.1623 32.7981 57.9176 32.36 56.6333 31.9486C55.8786 34.5506 54.8855 37.2587 53.6541 40.0332C54.8723 42.7944 55.852 45.4893 56.5935 48.078C57.9044 47.6666 59.1491 47.2151 60.301 46.7239ZM53.1774 65.6943C54.9782 64.6589 55.7595 60.7162 55.1502 55.645C55.0047 54.3971 54.7664 53.0828 54.475 51.742C51.8797 52.3792 49.0463 52.8704 46.067 53.189C44.2795 55.645 42.4257 57.8753 40.5588 59.8267C44.8753 63.8491 48.9271 66.0528 51.6813 66.0528C52.277 66.0396 52.7802 65.9201 53.1774 65.6943ZM21.77 55.5786C21.1476 60.6499 21.9155 64.5926 23.7031 65.6413C24.1004 65.8803 24.6167 65.9865 25.2258 65.9865C27.9667 65.9865 32.0317 63.796 36.3483 59.8002C34.4945 57.8487 32.6408 55.6317 30.8797 53.1757C27.8872 52.8571 25.0537 52.3659 22.4584 51.7155C22.1539 53.0563 21.9155 54.344 21.77 55.5786ZM16.6721 46.7239C17.8109 47.2151 19.0556 47.6532 20.3399 48.0648C21.0946 45.4628 22.0877 42.7547 23.3191 39.98C22.1009 37.2188 21.1212 34.524 20.3796 31.9352C19.0688 32.3468 17.8242 32.7981 16.659 33.2893C11.9717 35.2939 8.93949 37.9224 8.93949 40.0067C8.95277 42.0909 11.9848 44.7327 16.6721 46.7239Z"
          fill="black"/>
    <path d="M38.4965 46.0731C35.1545 46.0731 32.4453 43.3569 32.4453 40.0063C32.4453 36.6556 35.1545 33.9395 38.4965 33.9395C41.8383 33.9395 44.5475 36.6556 44.5475 40.0063C44.5475 43.3569 41.8383 46.0731 38.4965 46.0731Z"
          fill="black"/>
</svg>
